<?xml version="1.0" encoding="utf-8"?>
<svg version="1.1" xmlns:xlink="http://www.w3.org/1999/xlink" width="113px" height="64px" xmlns="http://www.w3.org/2000/svg">
  <g transform="matrix(1 0 0 1 0 -126 )">
    <path d="M 0 126  L 113 126  L 113 190  L 0 190  L 0 126  " fill-rule="nonzero" fill="#cccccc" stroke="none" />
    <path d="M 4 130  L 109 130  L 109 186  L 4 186  L 4 130  " fill-rule="nonzero" fill="#ffffff" stroke="none" />
    <path d="M 63.56 145.2  C 60.872 145.2  58.76 143.088  58.76 140.4  C 58.76 137.712  60.872 135.6  63.56 135.6  C 66.248 135.6  68.36 137.712  68.36 140.4  C 68.36 143.088  66.248 145.2  63.56 145.2  " fill-rule="nonzero" fill="#cccccc" stroke="none" />
    <path d="M 6 185  L 6 155.85  L 31.5 142.6  L 67.2 166.989380530973  L 87.6 150.55  L 108 166.989380530973  L 108 185  L 6 185  " fill-rule="nonzero" fill="#767676" stroke="none" />
  </g>
</svg>