<?xml version="1.0" encoding="utf-8"?>
<svg version="1.1" xmlns:xlink="http://www.w3.org/1999/xlink" width="354px" height="201px" xmlns="http://www.w3.org/2000/svg">
  <g transform="matrix(1 0 0 1 -10 -114 )">
    <path d="M 10 114  L 364 114  L 364 315  L 10 315  L 10 114  " fill-rule="nonzero" fill="#cccccc" stroke="none" />
    <path d="M 24 128  L 350 128  L 350 301  L 24 301  L 24 128  " fill-rule="nonzero" fill="#ffffff" stroke="none" />
    <path d="M 209.155 174.3  C 200.713 174.3  194.08 167.667  194.08 159.225  C 194.08 150.783  200.713 144.15  209.155 144.15  C 217.597 144.15  224.23 150.783  224.23 159.225  C 224.23 167.667  217.597 174.3  209.155 174.3  " fill-rule="nonzero" fill="#cccccc" stroke="none" />
    <path d="M 29 296  L 29 206.35  L 108 165.6  L 218.6 240.469491525424  L 281.8 190.05  L 345 240.469491525424  L 345 296  L 29 296  " fill-rule="nonzero" fill="#767676" stroke="none" />
  </g>
</svg>