<?xml version="1.0" encoding="utf-8"?>
<svg version="1.1" xmlns:xlink="http://www.w3.org/1999/xlink" width="12px" height="12px" viewBox="10 614.5  12 12" xmlns="http://www.w3.org/2000/svg">
  <path d="M 16 614.5  C 19.36 614.5  22 617.14  22 620.5  C 22 623.86  19.36 626.5  16 626.5  C 12.64 626.5  10 623.86  10 620.5  C 10 617.14  12.64 614.5  16 614.5  Z " fill-rule="nonzero" fill="#ffffff" stroke="none" />
  <path d="M 16 615  C 19.08 615  21.5 617.42  21.5 620.5  C 21.5 623.58  19.08 626  16 626  C 12.92 626  10.5 623.58  10.5 620.5  C 10.5 617.42  12.92 615  16 615  Z " stroke-width="1" stroke="#797979" fill="none" />
  <path d="M 16 623.5  C 14.32 623.5  13 622.18  13 620.5  C 13 618.82  14.32 617.5  16 617.5  C 17.68 617.5  19 618.82  19 620.5  C 19 622.18  17.68 623.5  16 623.5  " fill-rule="nonzero" fill="#797979" stroke="none" />
</svg>