<?xml version="1.0" encoding="utf-8"?>
<svg version="1.1" xmlns:xlink="http://www.w3.org/1999/xlink" width="12px" height="12px" viewBox="119 614.5  12 12" xmlns="http://www.w3.org/2000/svg">
  <path d="M 125 614.5  C 128.36 614.5  131 617.14  131 620.5  C 131 623.86  128.36 626.5  125 626.5  C 121.64 626.5  119 623.86  119 620.5  C 119 617.14  121.64 614.5  125 614.5  Z " fill-rule="nonzero" fill="#ffffff" stroke="none" />
  <path d="M 125 615  C 128.08 615  130.5 617.42  130.5 620.5  C 130.5 623.58  128.08 626  125 626  C 121.92 626  119.5 623.58  119.5 620.5  C 119.5 617.42  121.92 615  125 615  Z " stroke-width="1" stroke="#797979" fill="none" />
  <path d="M 125 623.5  C 123.32 623.5  122 622.18  122 620.5  C 122 618.82  123.32 617.5  125 617.5  C 126.68 617.5  128 618.82  128 620.5  C 128 622.18  126.68 623.5  125 623.5  " fill-rule="nonzero" fill="#797979" stroke="none" />
</svg>