<?xml version="1.0" encoding="utf-8"?>
<svg version="1.1" xmlns:xlink="http://www.w3.org/1999/xlink" width="427px" height="555px" xmlns="http://www.w3.org/2000/svg">
  <defs>
    <filter x="220px" y="579px" width="427px" height="555px" filterUnits="userSpaceOnUse" id="filter39">
      <feOffset dx="0" dy="10" in="SourceAlpha" result="shadowOffsetInner" />
      <feGaussianBlur stdDeviation="10" in="shadowOffsetInner" result="shadowGaussian" />
      <feComposite in2="shadowGaussian" operator="atop" in="SourceAlpha" result="shadowComposite" />
      <feColorMatrix type="matrix" values="0 0 0 0 0  0 0 0 0 0  0 0 0 0 0  0 0 0 0.101960784313725 0  " in="shadowComposite" />
    </filter>
    <g id="widget40">
      <path d="M 241 594  A 4 4 0 0 1 245 590 L 622 590  A 4 4 0 0 1 626 594 L 626 1099  A 4 4 0 0 1 622 1103 L 245 1103  A 4 4 0 0 1 241 1099 L 241 594  Z " fill-rule="nonzero" fill="#ffffff" stroke="none" />
      <path d="M 240.5 594  A 4.5 4.5 0 0 1 245 589.5 L 622 589.5  A 4.5 4.5 0 0 1 626.5 594 L 626.5 1099  A 4.5 4.5 0 0 1 622 1103.5 L 245 1103.5  A 4.5 4.5 0 0 1 240.5 1099 L 240.5 594  Z " stroke-width="1" stroke="#979797" fill="none" stroke-opacity="0.101960784313725" />
    </g>
  </defs>
  <g transform="matrix(1 0 0 1 -220 -579 )">
    <use xlink:href="#widget40" filter="url(#filter39)" />
    <use xlink:href="#widget40" />
  </g>
</svg>