<?xml version="1.0" encoding="utf-8"?>
<svg version="1.1" xmlns:xlink="http://www.w3.org/1999/xlink" width="834px" height="555px" xmlns="http://www.w3.org/2000/svg">
  <defs>
    <filter x="746px" y="579px" width="834px" height="555px" filterUnits="userSpaceOnUse" id="filter41">
      <feOffset dx="0" dy="10" in="SourceAlpha" result="shadowOffsetInner" />
      <feGaussianBlur stdDeviation="10" in="shadowOffsetInner" result="shadowGaussian" />
      <feComposite in2="shadowGaussian" operator="atop" in="SourceAlpha" result="shadowComposite" />
      <feColorMatrix type="matrix" values="0 0 0 0 0  0 0 0 0 0  0 0 0 0 0  0 0 0 0.101960784313725 0  " in="shadowComposite" />
    </filter>
    <g id="widget42">
      <path d="M 767 594  A 4 4 0 0 1 771 590 L 1555 590  A 4 4 0 0 1 1559 594 L 1559 1099  A 4 4 0 0 1 1555 1103 L 771 1103  A 4 4 0 0 1 767 1099 L 767 594  Z " fill-rule="nonzero" fill="#ffffff" stroke="none" />
      <path d="M 766.5 594  A 4.5 4.5 0 0 1 771 589.5 L 1555 589.5  A 4.5 4.5 0 0 1 1559.5 594 L 1559.5 1099  A 4.5 4.5 0 0 1 1555 1103.5 L 771 1103.5  A 4.5 4.5 0 0 1 766.5 1099 L 766.5 594  Z " stroke-width="1" stroke="#979797" fill="none" stroke-opacity="0.101960784313725" />
    </g>
  </defs>
  <g transform="matrix(1 0 0 1 -746 -579 )">
    <use xlink:href="#widget42" filter="url(#filter41)" />
    <use xlink:href="#widget42" />
  </g>
</svg>