<?xml version="1.0" encoding="utf-8"?>
<svg version="1.1" xmlns:xlink="http://www.w3.org/1999/xlink" width="24px" height="24px" xmlns="http://www.w3.org/2000/svg">
  <g transform="matrix(1 0 0 1 -1043 -721 )">
    <path d="M 24 18.5  C 24 18.5  24 0  24 0  L 0 0  C 0 0  0 18.5  0 18.5  C 0 21.5375661240694  2.46243387593063 24  5.5 24  C 5.5 24  18.5 24  18.5 24  C 21.5375661240694 24  24 21.5375661240694  24 18.5  Z M 1 1  L 23 1  C 23 1  23 18.5  23 18.5  C 23 20.9852813742385  20.9852813742386 23  18.5 23  C 18.5 23  5.5 23  5.5 23  C 3.01471862576136 23  1 20.9852813742385  1 18.5  C 1 18.5  1 1  1 1  Z " fill-rule="nonzero" fill="#8c8c8c" stroke="none" transform="matrix(1 0 0 1 1043 721 )" />
  </g>
</svg>