<?xml version="1.0" encoding="utf-8"?>
<svg version="1.1" xmlns:xlink="http://www.w3.org/1999/xlink" width="7px" height="8px" xmlns="http://www.w3.org/2000/svg">
  <defs>
    <mask fill="white" id="clip44">
      <path d="M 6.59280638478494 5.2  C 6.59280638478494 5.2  6.96083377483814 3.46666666666667  6.99763651384346 3.13333333333333  C 7.0712419918541 1.36666666666667  5.41511873661472 0  3.50137630833811 0  C 1.5876338800615 0  -0.1052921141832 1.4  0.00511610283275876 3.13333333333333  C 0.0419188418380781 3.5  0.409946231891273 5.23333333333333  0.409946231891273 5.23333333333333  C 0.704368143933828 6.73333333333333  1.80845031409341 8  3.50137630833811 8  C 5.1943023025828 8  6.29838447274239 6.73333333333333  6.59280638478494 5.2  Z " fill-rule="evenodd" />
    </mask>
  </defs>
  <g transform="matrix(1 0 0 1 -275 -796 )">
    <path d="M 6.59280638478494 5.2  C 6.59280638478494 5.2  6.96083377483814 3.46666666666667  6.99763651384346 3.13333333333333  C 7.0712419918541 1.36666666666667  5.41511873661472 0  3.50137630833811 0  C 1.5876338800615 0  -0.1052921141832 1.4  0.00511610283275876 3.13333333333333  C 0.0419188418380781 3.5  0.409946231891273 5.23333333333333  0.409946231891273 5.23333333333333  C 0.704368143933828 6.73333333333333  1.80845031409341 8  3.50137630833811 8  C 5.1943023025828 8  6.29838447274239 6.73333333333333  6.59280638478494 5.2  Z " fill-rule="nonzero" fill="#ffffff" stroke="none" fill-opacity="0" transform="matrix(1 0 0 1 275 796 )" />
    <path d="M 6.59280638478494 5.2  C 6.59280638478494 5.2  6.96083377483814 3.46666666666667  6.99763651384346 3.13333333333333  C 7.0712419918541 1.36666666666667  5.41511873661472 0  3.50137630833811 0  C 1.5876338800615 0  -0.1052921141832 1.4  0.00511610283275876 3.13333333333333  C 0.0419188418380781 3.5  0.409946231891273 5.23333333333333  0.409946231891273 5.23333333333333  C 0.704368143933828 6.73333333333333  1.80845031409341 8  3.50137630833811 8  C 5.1943023025828 8  6.29838447274239 6.73333333333333  6.59280638478494 5.2  Z " stroke-width="3" stroke="#646464" fill="none" transform="matrix(1 0 0 1 275 796 )" mask="url(#clip44)" />
  </g>
</svg>