<?xml version="1.0" encoding="utf-8"?>
<svg version="1.1" xmlns:xlink="http://www.w3.org/1999/xlink" width="16px" height="6px" xmlns="http://www.w3.org/2000/svg">
  <defs>
    <mask fill="white" id="clip45">
      <path d="M 15.5826086956522 2.925  C 15.5826086956522 2.925  16 6  16 6  L 0 6  C 0 6  0.382608695652174 2.925  0.382608695652174 2.925  C 0.556521739130435 1.9125  1.39130434782609 1.3125  2.3304347826087 1.0875  C 2.3304347826087 1.0875  8 0  8 0  C 8 0  13.6695652173913 1.0875  13.6695652173913 1.0875  C 14.6086956521739 1.3125  15.4434782608696 1.9125  15.5826086956522 2.925  Z " fill-rule="evenodd" />
    </mask>
  </defs>
  <g transform="matrix(1 0 0 1 -270 -806 )">
    <path d="M 15.5826086956522 2.925  C 15.5826086956522 2.925  16 6  16 6  L 0 6  C 0 6  0.382608695652174 2.925  0.382608695652174 2.925  C 0.556521739130435 1.9125  1.39130434782609 1.3125  2.3304347826087 1.0875  C 2.3304347826087 1.0875  8 0  8 0  C 8 0  13.6695652173913 1.0875  13.6695652173913 1.0875  C 14.6086956521739 1.3125  15.4434782608696 1.9125  15.5826086956522 2.925  Z " fill-rule="nonzero" fill="#ffffff" stroke="none" fill-opacity="0" transform="matrix(1 0 0 1 270 806 )" />
    <path d="M 15.5826086956522 2.925  C 15.5826086956522 2.925  16 6  16 6  L 0 6  C 0 6  0.382608695652174 2.925  0.382608695652174 2.925  C 0.556521739130435 1.9125  1.39130434782609 1.3125  2.3304347826087 1.0875  C 2.3304347826087 1.0875  8 0  8 0  C 8 0  13.6695652173913 1.0875  13.6695652173913 1.0875  C 14.6086956521739 1.3125  15.4434782608696 1.9125  15.5826086956522 2.925  Z " stroke-width="3" stroke="#646464" fill="none" transform="matrix(1 0 0 1 270 806 )" mask="url(#clip45)" />
  </g>
</svg>