<?xml version="1.0" encoding="utf-8"?>
<svg version="1.1" xmlns:xlink="http://www.w3.org/1999/xlink" width="13px" height="16px" xmlns="http://www.w3.org/2000/svg">
  <defs>
    <mask fill="white" id="clip46">
      <path d="M 11.0757939773353 1.94402575426879  C 11.0416621006717 1.90923373880906  11.0416621006717 1.90923373880906  11.0757939773353 1.94402575426879  C 13.6356847271046 4.55342691374859  13.6356847271046 8.72846876891628  11.1099258539989 11.3030779129364  C 11.1099258539989 11.3030779129364  6.50212250441409 16  6.50212250441409 16  C 6.50212250441409 16  1.8943191548293 11.3030779129364  1.8943191548293 11.3030779129364  C -0.631439718276434 8.72846876891628  -0.631439718276434 4.55342691374859  1.8943191548293 1.97881776972852  C 1.8943191548293 1.97881776972852  1.92845103149289 1.94402575426879  1.92845103149289 1.94402575426879  C 4.45420990459863 -0.630583389751287  8.51590322756597 -0.665375405211018  11.0757939773353 1.94402575426879  Z " fill-rule="evenodd" />
    </mask>
  </defs>
  <g transform="matrix(1 0 0 1 -271 -712 )">
    <path d="M 11.0757939773353 1.94402575426879  C 11.0416621006717 1.90923373880906  11.0416621006717 1.90923373880906  11.0757939773353 1.94402575426879  C 13.6356847271046 4.55342691374859  13.6356847271046 8.72846876891628  11.1099258539989 11.3030779129364  C 11.1099258539989 11.3030779129364  6.50212250441409 16  6.50212250441409 16  C 6.50212250441409 16  1.8943191548293 11.3030779129364  1.8943191548293 11.3030779129364  C -0.631439718276434 8.72846876891628  -0.631439718276434 4.55342691374859  1.8943191548293 1.97881776972852  C 1.8943191548293 1.97881776972852  1.92845103149289 1.94402575426879  1.92845103149289 1.94402575426879  C 4.45420990459863 -0.630583389751287  8.51590322756597 -0.665375405211018  11.0757939773353 1.94402575426879  Z " fill-rule="nonzero" fill="#ffffff" stroke="none" fill-opacity="0" transform="matrix(1 0 0 1 271 712 )" />
    <path d="M 11.0757939773353 1.94402575426879  C 11.0416621006717 1.90923373880906  11.0416621006717 1.90923373880906  11.0757939773353 1.94402575426879  C 13.6356847271046 4.55342691374859  13.6356847271046 8.72846876891628  11.1099258539989 11.3030779129364  C 11.1099258539989 11.3030779129364  6.50212250441409 16  6.50212250441409 16  C 6.50212250441409 16  1.8943191548293 11.3030779129364  1.8943191548293 11.3030779129364  C -0.631439718276434 8.72846876891628  -0.631439718276434 4.55342691374859  1.8943191548293 1.97881776972852  C 1.8943191548293 1.97881776972852  1.92845103149289 1.94402575426879  1.92845103149289 1.94402575426879  C 4.45420990459863 -0.630583389751287  8.51590322756597 -0.665375405211018  11.0757939773353 1.94402575426879  Z " stroke-width="3" stroke="#113180" fill="none" transform="matrix(1 0 0 1 271 712 )" mask="url(#clip46)" />
  </g>
</svg>