<?xml version="1.0" encoding="utf-8"?>
<svg version="1.1" xmlns:xlink="http://www.w3.org/1999/xlink" width="427px" height="555px" xmlns="http://www.w3.org/2000/svg">
  <defs>
    <filter x="340px" y="579px" width="427px" height="555px" filterUnits="userSpaceOnUse" id="filter43">
      <feOffset dx="0" dy="10" in="SourceAlpha" result="shadowOffsetInner" />
      <feGaussianBlur stdDeviation="10" in="shadowOffsetInner" result="shadowGaussian" />
      <feComposite in2="shadowGaussian" operator="atop" in="SourceAlpha" result="shadowComposite" />
      <feColorMatrix type="matrix" values="0 0 0 0 0  0 0 0 0 0  0 0 0 0 0  0 0 0 0.101960784313725 0  " in="shadowComposite" />
    </filter>
    <g id="widget44">
      <path d="M 361 594  A 4 4 0 0 1 365 590 L 742 590  A 4 4 0 0 1 746 594 L 746 1099  A 4 4 0 0 1 742 1103 L 365 1103  A 4 4 0 0 1 361 1099 L 361 594  Z " fill-rule="nonzero" fill="#ffffff" stroke="none" />
      <path d="M 360.5 594  A 4.5 4.5 0 0 1 365 589.5 L 742 589.5  A 4.5 4.5 0 0 1 746.5 594 L 746.5 1099  A 4.5 4.5 0 0 1 742 1103.5 L 365 1103.5  A 4.5 4.5 0 0 1 360.5 1099 L 360.5 594  Z " stroke-width="1" stroke="#979797" fill="none" stroke-opacity="0.101960784313725" />
    </g>
  </defs>
  <g transform="matrix(1 0 0 1 -340 -579 )">
    <use xlink:href="#widget44" filter="url(#filter43)" />
    <use xlink:href="#widget44" />
  </g>
</svg>