<?xml version="1.0" encoding="utf-8"?>
<svg version="1.1" xmlns:xlink="http://www.w3.org/1999/xlink" width="7px" height="16px" xmlns="http://www.w3.org/2000/svg">
  <defs>
    <mask fill="white" id="clip46">
      <path d="M 0 8  C 0 12.4182779984  1.5670033757 16  3.5 16  C 5.4329966243 16  7 12.4182779984  7 8  C 7 3.5817220016  5.4329966243 0  3.5 0  C 1.5670033757 0  0 3.5817220016  0 8  Z " fill-rule="evenodd" />
    </mask>
  </defs>
  <g transform="matrix(1 0 0 1 -396 -917 )">
    <path d="M 0 8  C 0 12.4182779984  1.5670033757 16  3.5 16  C 5.4329966243 16  7 12.4182779984  7 8  C 7 3.5817220016  5.4329966243 0  3.5 0  C 1.5670033757 0  0 3.5817220016  0 8  Z " fill-rule="nonzero" fill="#ffffff" stroke="none" fill-opacity="0" transform="matrix(1 0 0 1 396 917 )" />
    <path d="M 0 8  C 0 12.4182779984  1.5670033757 16  3.5 16  C 5.4329966243 16  7 12.4182779984  7 8  C 7 3.5817220016  5.4329966243 0  3.5 0  C 1.5670033757 0  0 3.5817220016  0 8  Z " stroke-width="3" stroke="#646464" fill="none" transform="matrix(1 0 0 1 396 917 )" mask="url(#clip46)" />
  </g>
</svg>