<?xml version="1.0" encoding="utf-8"?>
<svg version="1.1" xmlns:xlink="http://www.w3.org/1999/xlink" width="15px" height="16px" xmlns="http://www.w3.org/2000/svg">
  <defs>
    <mask fill="white" id="clip47">
      <path d="M 6.55434782608695 9.12798264642082  C 5.70652173913044 8.22559652928417  5.02173913043478 7.25379609544469  4.43478260869565 6.21258134490239  C 4.43478260869565 6.21258134490239  4.95652173913043 4.68546637744035  4.95652173913043 4.68546637744035  C 5.08695652173913 4.33839479392625  5.1195652173913 3.95661605206074  5.05434782608696 3.60954446854664  C 5.05434782608696 3.60954446854664  4.20652173913043 0  4.20652173913043 0  C 4.20652173913043 0  0 0.65943600867679  0 0.65943600867679  C 0.228260869565217 4.65075921908894  1.79347826086957 8.39913232104121  4.43478260869565 11.2451193058568  C 7.14130434782609 14.1258134490239  10.7282608695652 15.7917570498915  14.5434782608696 16  C 14.5434782608696 16  15 11.2798264642082  15 11.2798264642082  C 15 11.2798264642082  11.8695652173913 10.5162689804772  11.8695652173913 10.5162689804772  C 11.5108695652174 10.4468546637744  11.1521739130435 10.4815618221258  10.8260869565217 10.6550976138829  C 10.8260869565217 10.6550976138829  9.26086956521739 11.3839479392625  9.26086956521739 11.3839479392625  C 8.28260869565217 10.7592190889371  7.3695652173913 9.99566160520607  6.55434782608695 9.12798264642082  Z " fill-rule="evenodd" />
    </mask>
  </defs>
  <g transform="matrix(1 0 0 1 -390 -890 )">
    <path d="M 6.55434782608695 9.12798264642082  C 5.70652173913044 8.22559652928417  5.02173913043478 7.25379609544469  4.43478260869565 6.21258134490239  C 4.43478260869565 6.21258134490239  4.95652173913043 4.68546637744035  4.95652173913043 4.68546637744035  C 5.08695652173913 4.33839479392625  5.1195652173913 3.95661605206074  5.05434782608696 3.60954446854664  C 5.05434782608696 3.60954446854664  4.20652173913043 0  4.20652173913043 0  C 4.20652173913043 0  0 0.65943600867679  0 0.65943600867679  C 0.228260869565217 4.65075921908894  1.79347826086957 8.39913232104121  4.43478260869565 11.2451193058568  C 7.14130434782609 14.1258134490239  10.7282608695652 15.7917570498915  14.5434782608696 16  C 14.5434782608696 16  15 11.2798264642082  15 11.2798264642082  C 15 11.2798264642082  11.8695652173913 10.5162689804772  11.8695652173913 10.5162689804772  C 11.5108695652174 10.4468546637744  11.1521739130435 10.4815618221258  10.8260869565217 10.6550976138829  C 10.8260869565217 10.6550976138829  9.26086956521739 11.3839479392625  9.26086956521739 11.3839479392625  C 8.28260869565217 10.7592190889371  7.3695652173913 9.99566160520607  6.55434782608695 9.12798264642082  Z " fill-rule="nonzero" fill="#ffffff" stroke="none" fill-opacity="0" transform="matrix(1 0 0 1 390 890 )" />
    <path d="M 6.55434782608695 9.12798264642082  C 5.70652173913044 8.22559652928417  5.02173913043478 7.25379609544469  4.43478260869565 6.21258134490239  C 4.43478260869565 6.21258134490239  4.95652173913043 4.68546637744035  4.95652173913043 4.68546637744035  C 5.08695652173913 4.33839479392625  5.1195652173913 3.95661605206074  5.05434782608696 3.60954446854664  C 5.05434782608696 3.60954446854664  4.20652173913043 0  4.20652173913043 0  C 4.20652173913043 0  0 0.65943600867679  0 0.65943600867679  C 0.228260869565217 4.65075921908894  1.79347826086957 8.39913232104121  4.43478260869565 11.2451193058568  C 7.14130434782609 14.1258134490239  10.7282608695652 15.7917570498915  14.5434782608696 16  C 14.5434782608696 16  15 11.2798264642082  15 11.2798264642082  C 15 11.2798264642082  11.8695652173913 10.5162689804772  11.8695652173913 10.5162689804772  C 11.5108695652174 10.4468546637744  11.1521739130435 10.4815618221258  10.8260869565217 10.6550976138829  C 10.8260869565217 10.6550976138829  9.26086956521739 11.3839479392625  9.26086956521739 11.3839479392625  C 8.28260869565217 10.7592190889371  7.3695652173913 9.99566160520607  6.55434782608695 9.12798264642082  Z " stroke-width="3" stroke="#646464" fill="none" transform="matrix(1 0 0 1 390 890 )" mask="url(#clip47)" />
  </g>
</svg>