<?xml version="1.0" encoding="utf-8"?>
<svg version="1.1" xmlns:xlink="http://www.w3.org/1999/xlink" width="4px" height="3px" xmlns="http://www.w3.org/2000/svg">
  <defs>
    <mask fill="white" id="clip51">
      <path d="M 0 1.5  C 0 2.3284271247  0.8954305004 3  2 3  C 3.1045694996 3  4 2.3284271247  4 1.5  C 4 0.6715728753  3.1045694996 0  2 0  C 0.8954305004 0  0 0.6715728753  0 1.5  Z " fill-rule="evenodd" />
    </mask>
  </defs>
  <g transform="matrix(1 0 0 1 -396 -717 )">
    <path d="M 0 1.5  C 0 2.3284271247  0.8954305004 3  2 3  C 3.1045694996 3  4 2.3284271247  4 1.5  C 4 0.6715728753  3.1045694996 0  2 0  C 0.8954305004 0  0 0.6715728753  0 1.5  Z " fill-rule="nonzero" fill="#ffffff" stroke="none" fill-opacity="0" transform="matrix(1 0 0 1 396 717 )" />
    <path d="M 0 1.5  C 0 2.3284271247  0.8954305004 3  2 3  C 3.1045694996 3  4 2.3284271247  4 1.5  C 4 0.6715728753  3.1045694996 0  2 0  C 0.8954305004 0  0 0.6715728753  0 1.5  Z " stroke-width="3" stroke="#113180" fill="none" transform="matrix(1 0 0 1 396 717 )" mask="url(#clip51)" />
  </g>
</svg>