<?xml version="1.0" encoding="utf-8"?>
<svg version="1.1" xmlns:xlink="http://www.w3.org/1999/xlink" width="26px" height="30px" xmlns="http://www.w3.org/2000/svg">
  <g transform="matrix(1 0 0 1 -838 -2485 )">
    <path d="M 19.5677083333333 1.13839285714286  L 24.8489583333333 6.36160714285714  C 25.1649305555556 6.67410714285714  25.4357638888889 7.09821428571429  25.6614583333333 7.63392857142857  C 25.8871527777778 8.16964285714286  26 8.66071428571428  26 9.10714285714286  L 26 28.3928571428571  C 26 28.8392857142857  25.8420138888889 29.21875  25.5260416666667 29.53125  C 25.2100694444444 29.84375  24.8263888888889 30  24.375 30  L 1.625 30  C 1.17361111111111 30  0.789930555555556 29.84375  0.473958333333333 29.53125  C 0.157986111111111 29.21875  0 28.8392857142857  0 28.3928571428571  L 0 1.60714285714286  C 0 1.16071428571428  0.157986111111111 0.781249999999999  0.473958333333333 0.46875  C 0.789930555555556 0.156250000000001  1.17361111111111 0  1.625 0  L 16.7916666666667 0  C 17.2430555555556 0  17.7395833333333 0.111607142857144  18.28125 0.334821428571429  C 18.8229166666667 0.558035714285714  19.2517361111111 0.825892857142856  19.5677083333333 1.13839285714286  Z M 18.02734375 2.64508928571429  C 17.8919270833333 2.51116071428571  17.6605902777778 2.38839285714285  17.3333333333333 2.27678571428571  L 17.3333333333333 8.57142857142857  L 23.6979166666667 8.57142857142857  C 23.5850694444444 8.24776785714285  23.4609375 8.01897321428571  23.3255208333333 7.88504464285714  L 18.02734375 2.64508928571429  Z M 2.16666666666667 27.8571428571429  L 23.8333333333333 27.8571428571429  L 23.8333333333333 10.7142857142857  L 16.7916666666667 10.7142857142857  C 16.3402777777778 10.7142857142857  15.9565972222222 10.5580357142857  15.640625 10.2455357142857  C 15.3246527777778 9.93303571428571  15.1666666666667 9.55357142857143  15.1666666666667 9.10714285714286  L 15.1666666666667 2.14285714285714  L 2.16666666666667 2.14285714285714  L 2.16666666666667 27.8571428571429  Z M 12.6614583333333 13.9453125  C 13.2821180555556 15.7756696428571  14.1059027777778 17.1037946428571  15.1328125 17.9296875  C 15.5052083333333 18.2198660714286  15.9791666666667 18.5323660714286  16.5546875 18.8671875  C 17.2204861111111 18.7890625  17.8806423611111 18.75  18.53515625 18.75  C 20.1940104166667 18.75  21.1927083333333 19.0234375  21.53125 19.5703125  C 21.7118055555556 19.8158482142857  21.7230902777778 20.1060267857143  21.5651041666667 20.4408482142857  C 21.5651041666667 20.4520089285714  21.5594618055556 20.4631696428571  21.5481770833333 20.4743303571429  L 21.5143229166667 20.5078125  L 21.5143229166667 20.5245535714286  C 21.4466145833333 20.9486607142857  21.0460069444444 21.1607142857143  20.3125 21.1607142857143  C 19.7708333333333 21.1607142857143  19.1219618055556 21.0491071428571  18.3658854166667 20.8258928571429  C 17.6098090277778 20.6026785714286  16.8763020833333 20.3069196428571  16.1653645833333 19.9386160714286  C 13.6714409722222 20.2064732142857  11.4596354166667 20.6696428571429  9.52994791666667 21.328125  C 7.80338541666667 24.2522321428571  6.43793402777778 25.7142857142857  5.43359375 25.7142857142857  C 5.26432291666667 25.7142857142857  5.10633680555556 25.6752232142857  4.95963541666667 25.5970982142857  L 4.55338541666667 25.3962053571429  C 4.54210069444444 25.3850446428571  4.50824652777778 25.3571428571429  4.45182291666667 25.3125  C 4.33897569444444 25.2008928571429  4.30512152777778 25  4.35026041666667 24.7098214285714  C 4.45182291666667 24.2633928571429  4.76779513888889 23.7527901785714  5.29817708333333 23.1780133928571  C 5.82855902777778 22.6032366071429  6.57335069444444 22.0647321428571  7.53255208333333 21.5625  C 7.69053819444444 21.4620535714286  7.8203125 21.4955357142857  7.921875 21.6629464285714  C 7.94444444444444 21.6852678571429  7.95572916666667 21.7075892857143  7.95572916666667 21.7299107142857  C 8.54253472222222 20.78125  9.14626736111111 19.6819196428571  9.76692708333333 18.4319196428571  C 10.5342881944444 16.9140625  11.12109375 15.4520089285714  11.52734375 14.0457589285714  C 11.2565104166667 13.1305803571429  11.0844184027778 12.2405133928571  11.0110677083333 11.3755580357143  C 10.9377170138889 10.5106026785714  10.9743923611111 9.79910714285714  11.12109375 9.24107142857143  C 11.2452256944444 8.79464285714286  11.4822048611111 8.57142857142857  11.83203125 8.57142857142857  L 12.1875 8.57142857142857  L 12.2044270833333 8.57142857142857  C 12.4639756944444 8.57142857142857  12.6614583333333 8.65513392857143  12.796875 8.82254464285714  C 13 9.05691964285714  13.05078125 9.43638392857143  12.94921875 9.9609375  C 12.9266493055556 10.0279017857143  12.9040798611111 10.0725446428571  12.8815104166667 10.0948660714286  C 12.8927951388889 10.1283482142857  12.8984375 10.1729910714286  12.8984375 10.2287946428571  L 12.8984375 10.7310267857143  C 12.8758680555556 12.1037946428571  12.796875 13.1752232142857  12.6614583333333 13.9453125  Z M 6.220703125 23.5714285714286  C 5.80881076388889 24.0625  5.52951388888889 24.4754464285714  5.3828125 24.8102678571429  C 5.96961805555556 24.5424107142857  6.74262152777778 23.6607142857143  7.70182291666667 22.1651785714286  C 7.12630208333333 22.6116071428571  6.63259548611111 23.0803571428571  6.220703125 23.5714285714286  Z M 12.1197916666667 9.375  L 12.1197916666667 9.40848214285714  C 11.9505208333333 9.87723214285714  11.9392361111111 10.6138392857143  12.0859375 11.6183035714286  C 12.0972222222222 11.5401785714286  12.13671875 11.2946428571429  12.2044270833333 10.8816964285714  C 12.2044270833333 10.8482142857143  12.2439236111111 10.6082589285714  12.3229166666667 10.1618303571429  C 12.3342013888889 10.1171875  12.3567708333333 10.0725446428571  12.390625 10.0279017857143  C 12.3793402777778 10.0167410714286  12.3736979166667 10.0055803571429  12.3736979166667 9.99441964285714  C 12.3624131944444 9.97209821428571  12.3567708333333 9.95535714285714  12.3567708333333 9.94419642857143  C 12.3454861111111 9.69866071428571  12.2721354166667 9.49776785714286  12.13671875 9.34151785714286  C 12.13671875 9.35267857142857  12.1310763888889 9.36383928571428  12.1197916666667 9.375  Z M 10.7825520833333 19.0848214285714  C 10.4440104166667 19.7098214285714  10.1901041666667 20.1729910714286  10.0208333333333 20.4743303571429  C 11.5442708333333 19.8716517857143  13.1467013888889 19.4196428571429  14.828125 19.1183035714286  C 14.8055555555556 19.1071428571429  14.7322048611111 19.0541294642857  14.6080729166667 18.9592633928571  C 14.4839409722222 18.8643973214286  14.3936631944444 18.7890625  14.3372395833333 18.7332589285714  C 13.4796006944444 17.9854910714286  12.7630208333333 17.0033482142857  12.1875 15.7868303571429  C 11.8828125 16.7466517857143  11.4144965277778 17.8459821428571  10.7825520833333 19.0848214285714  Z M 20.9895833333333 20.2566964285714  C 20.9895833333333 20.2455357142857  20.9782986111111 20.2287946428571  20.9557291666667 20.2064732142857  C 20.6848958333333 19.9386160714286  19.8949652777778 19.8046875  18.5859375 19.8046875  C 19.4435763888889 20.1171875  20.1432291666667 20.2734375  20.6848958333333 20.2734375  C 20.8428819444444 20.2734375  20.9444444444444 20.2678571428571  20.9895833333333 20.2566964285714  Z " fill-rule="nonzero" fill="#113180" stroke="none" transform="matrix(1 0 0 1 838 2485 )" />
  </g>
</svg>