<?xml version="1.0" encoding="utf-8"?>
<svg version="1.1" xmlns:xlink="http://www.w3.org/1999/xlink" width="15px" height="28px" xmlns="http://www.w3.org/2000/svg">
  <g transform="matrix(1 0 0 1 -1370 -661 )">
    <path d="M 2.31873460595864 27.7103448275861  C 2.13862376852035 27.903448275862  1.91348522172234 28  1.66583282024476 28  C 1.41818041876661 28  1.1930418719686 27.903448275862  1.01293103453031 27.7103448275861  C 0.652709359653159 27.3241379310343  0.652709359653159 26.696551724138  1.01293103453031 26.3103448275861  C 1.01293103453031 26.3103448275861  12.4949969212298 14  12.4949969212298 14  C 12.4949969212298 14  1.01293103453031 1.68965517241386  1.01293103453031 1.68965517241386  C 0.652709359653159 1.30344827586205  0.652709359653159 0.675862068965671  1.01293103453031 0.289655172413859  C 1.3731527094069 -0.096551724137953  1.95851293108149 -0.096551724137953  2.31873460595864 0.289655172413859  C 2.31873460595864 0.289655172413859  14.4762161330522 13.3  14.4762161330522 13.3  C 14.8364378079293 13.6862068965518  14.8364378079293 14.3137931034482  14.4762161330522 14.7  C 14.4762161330522 14.7  2.31873460595864 27.7103448275861  2.31873460595864 27.7103448275861  Z " fill-rule="nonzero" fill="#ffffff" stroke="none" transform="matrix(1 0 0 1 1370 661 )" />
  </g>
</svg>