<?xml version="1.0" encoding="utf-8"?>
<svg version="1.1" xmlns:xlink="http://www.w3.org/1999/xlink" width="20px" height="20px" viewBox="445 461  20 20" xmlns="http://www.w3.org/2000/svg">
  <defs>
    <linearGradient gradientUnits="userSpaceOnUse" x1="448.415288567802" y1="464.421342959798" x2="465" y2="481" id="LinearGradient9">
      <stop id="Stop10" stop-color="#005187" offset="0" />
      <stop id="Stop11" stop-color="#005187" offset="0.16" />
      <stop id="Stop12" stop-color="#113180" offset="1" />
    </linearGradient>
    <linearGradient gradientUnits="userSpaceOnUse" x1="3.41528856780172" y1="3.42134295979758" x2="20" y2="20" id="LinearGradient13">
      <stop id="Stop14" stop-color="#005187" offset="0" />
      <stop id="Stop15" stop-color="#005187" offset="0.16" />
      <stop id="Stop16" stop-color="#113180" offset="1" />
    </linearGradient>
  </defs>
  <path d="M 455 461  C 460.6 461  465 465.4  465 471  C 465 476.6  460.6 481  455 481  C 449.4 481  445 476.6  445 471  C 445 465.4  449.4 461  455 461  Z " fill-rule="nonzero" fill="#ffffff" stroke="none" />
  <path d="M 455 461.5  C 460.32 461.5  464.5 465.68  464.5 471  C 464.5 476.32  460.32 480.5  455 480.5  C 449.68 480.5  445.5 476.32  445.5 471  C 445.5 465.68  449.68 461.5  455 461.5  Z " stroke-width="1" stroke="url(#LinearGradient9)" fill="none" />
  <path d="M 455 476  C 452.2 476  450 473.8  450 471  C 450 468.2  452.2 466  455 466  C 457.8 466  460 468.2  460 471  C 460 473.8  457.8 476  455 476  " fill-rule="nonzero" fill="url(#LinearGradient13)" stroke="none" />
</svg>