<?xml version="1.0" encoding="utf-8"?>
<svg version="1.1" xmlns:xlink="http://www.w3.org/1999/xlink" width="20px" height="20px" viewBox="589 461  20 20" xmlns="http://www.w3.org/2000/svg">
  <defs>
    <linearGradient gradientUnits="userSpaceOnUse" x1="592.415288567802" y1="464.421342959798" x2="609" y2="481" id="LinearGradient25">
      <stop id="Stop26" stop-color="#005187" offset="0" />
      <stop id="Stop27" stop-color="#005187" offset="0.16" />
      <stop id="Stop28" stop-color="#113180" offset="1" />
    </linearGradient>
    <linearGradient gradientUnits="userSpaceOnUse" x1="3.41528856780172" y1="3.42134295979758" x2="20" y2="20" id="LinearGradient29">
      <stop id="Stop30" stop-color="#005187" offset="0" />
      <stop id="Stop31" stop-color="#005187" offset="0.16" />
      <stop id="Stop32" stop-color="#113180" offset="1" />
    </linearGradient>
  </defs>
  <path d="M 599 461  C 604.6 461  609 465.4  609 471  C 609 476.6  604.6 481  599 481  C 593.4 481  589 476.6  589 471  C 589 465.4  593.4 461  599 461  Z " fill-rule="nonzero" fill="#ffffff" stroke="none" />
  <path d="M 599 461.5  C 604.32 461.5  608.5 465.68  608.5 471  C 608.5 476.32  604.32 480.5  599 480.5  C 593.68 480.5  589.5 476.32  589.5 471  C 589.5 465.68  593.68 461.5  599 461.5  Z " stroke-width="1" stroke="url(#LinearGradient25)" fill="none" />
  <path d="M 599 476  C 596.2 476  594 473.8  594 471  C 594 468.2  596.2 466  599 466  C 601.8 466  604 468.2  604 471  C 604 473.8  601.8 476  599 476  " fill-rule="nonzero" fill="url(#LinearGradient29)" stroke="none" />
</svg>