<?xml version="1.0" encoding="utf-8"?>
<svg version="1.1" xmlns:xlink="http://www.w3.org/1999/xlink" width="20px" height="20px" viewBox="564 461  20 20" xmlns="http://www.w3.org/2000/svg">
  <defs>
    <linearGradient gradientUnits="userSpaceOnUse" x1="567.415288567802" y1="464.421342959798" x2="584" y2="481" id="LinearGradient13">
      <stop id="Stop14" stop-color="#005187" offset="0" />
      <stop id="Stop15" stop-color="#005187" offset="0.16" />
      <stop id="Stop16" stop-color="#113180" offset="1" />
    </linearGradient>
    <linearGradient gradientUnits="userSpaceOnUse" x1="3.41528856780172" y1="3.42134295979758" x2="20" y2="20" id="LinearGradient17">
      <stop id="Stop18" stop-color="#005187" offset="0" />
      <stop id="Stop19" stop-color="#005187" offset="0.16" />
      <stop id="Stop20" stop-color="#113180" offset="1" />
    </linearGradient>
  </defs>
  <path d="M 574 461  C 579.6 461  584 465.4  584 471  C 584 476.6  579.6 481  574 481  C 568.4 481  564 476.6  564 471  C 564 465.4  568.4 461  574 461  Z " fill-rule="nonzero" fill="#ffffff" stroke="none" />
  <path d="M 574 461.5  C 579.32 461.5  583.5 465.68  583.5 471  C 583.5 476.32  579.32 480.5  574 480.5  C 568.68 480.5  564.5 476.32  564.5 471  C 564.5 465.68  568.68 461.5  574 461.5  Z " stroke-width="1" stroke="url(#LinearGradient13)" fill="none" />
  <path d="M 574 476  C 571.2 476  569 473.8  569 471  C 569 468.2  571.2 466  574 466  C 576.8 466  579 468.2  579 471  C 579 473.8  576.8 476  574 476  " fill-rule="nonzero" fill="url(#LinearGradient17)" stroke="none" />
</svg>