<?xml version="1.0" encoding="utf-8"?>
<svg version="1.1" xmlns:xlink="http://www.w3.org/1999/xlink" width="13px" height="13px" xmlns="http://www.w3.org/2000/svg">
  <g transform="matrix(1 0 0 1 -1422 -91 )">
    <path d="M 12.912946428572 6.5039682539682  C 12.912946428572 2.95997023809468  10.0400297619053 0.087053571427532  6.49608134920709 0.087053571427532  C 2.95208333333403 0.087053571427532  0.0791666666673336 2.95997023809468  0.0791666666673336 6.5039682539682  C 0.0791666666673336 10.0479166666664  2.95208333333403 12.9208333333336  6.49608134920709 12.9208333333336  C 10.0400297619053 12.9208333333336  12.912946428572 10.0479166666664  12.912946428572 6.5039682539682  Z M 6.49608134920618 2.33859126983953  C 8.79652777777756 2.33859126983953  10.6614087301587 4.20347222221972  10.6614087301587 6.50396825396456  C 10.6614087301587 8.80441468253775  8.79652777777756 10.6692956349179  6.49608134920618 10.6692956349179  C 4.19558531746043 10.6692956349179  2.33070436507933 8.80441468253775  2.33070436507933 6.50396825396456  C 2.33070436507933 4.20347222221972  4.19558531746043 2.33859126983953  6.49608134920618 2.33859126983953  Z " fill-rule="nonzero" fill="#ffffff" stroke="none" transform="matrix(1 0 0 1 1422 91 )" />
  </g>
</svg>