<?xml version="1.0" encoding="utf-8"?>
<svg version="1.1" xmlns:xlink="http://www.w3.org/1999/xlink" width="25px" height="25px" xmlns="http://www.w3.org/2000/svg">
  <g transform="matrix(1 0 0 1 -1416 -85 )">
    <path d="M 20.6814484126984 0.663938492063602  C 19.8866071428571 0.355009920635031  18.9782242063492 0.143750000000111  17.6481646825397 0.0830853174604307  C 16.3153273809524 0.0222718253969389  15.8897817460317 0.00788690476201733  12.4960813492063 0.00788690476201733  C 9.10233134920635 0.00788690476201733  8.67678571428571 0.0222718253969389  7.34394841269841 0.0830853174604307  C 6.01388888888889 0.143750000000111  5.10550595238095 0.355009920635031  4.31066468253968 0.663938492063602  C 3.48893849206349 0.983234126984236  2.79206349206349 1.41051587301598  2.09732142857143 2.10520833333344  C 1.40262896825397 2.7999503968255  0.975347222222222 3.49682539682549  0.656051587301587 4.31855158730168  C 0.347123015873016 5.11339285714295  0.135863095238095 6.02177579365088  0.0751984126984127 7.3518353174604  C 0.0143849206349206 8.68467261904769  0 9.11021825396833  0 12.5039682539683  C 0 15.8976686507937  0.0143849206349206 16.3232142857143  0.0751984126984127 17.6560515873016  C 0.135863095238095 18.9861111111111  0.347123015873016 19.8944940476191  0.656051587301587 20.6893353174603  C 0.975347222222222 21.5110615079365  1.40262896825397 22.2079365079365  2.09732142857143 22.9026785714286  C 2.79206349206349 23.597371031746  3.48893849206349 24.0246527777778  4.31066468253968 24.343998015873  C 5.10550595238095 24.652876984127  6.01388888888889 24.8641369047619  7.34394841269841 24.9248015873016  C 8.67678571428571 24.9856150793651  9.10233134920635 25  12.4960813492063 25  C 15.8897817460317 25  16.3153273809524 24.9856150793651  17.6481646825397 24.9248015873016  C 18.9782242063492 24.8641369047619  19.8866071428571 24.652876984127  20.6814484126984 24.343998015873  C 21.5031746031746 24.0246527777778  22.2000496031746 23.597371031746  22.8947916666667 22.9026785714286  C 23.5894841269841 22.2079365079365  24.0167658730159 21.5110615079365  24.3361111111111 20.6893353174603  C 24.6449900793651 19.8944940476191  24.85625 18.9861111111111  24.9169146825397 17.6560515873016  C 24.9777281746032 16.3232142857143  24.9921130952381 15.8976686507937  24.9921130952381 12.5039682539683  C 24.9921130952381 9.11021825396833  24.9777281746032 8.68467261904769  24.9169146825397 7.3518353174604  C 24.85625 6.02177579365088  24.6449900793651 5.11339285714295  24.3361111111111 4.31855158730168  C 24.0167658730159 3.49682539682549  23.5894841269841 2.7999503968255  22.8947916666667 2.10520833333344  C 22.2000496031746 1.41051587301598  21.5031746031746 0.983234126984236  20.6814484126984 0.663938492063602  Z M 7.44657738095258 2.33229166666697  C 8.76423611111132 2.27217261904793  9.15947420634942 2.25942460317491  12.4960813492066 2.25942460317491  C 15.8326388888891 2.25942460317491  16.2278769841272 2.27217261904793  17.5455357142859 2.33229166666697  C 18.7638888888891 2.38784722222253  19.4255456349208 2.59141865079396  19.8658730158732 2.76254960317491  C 20.449156746032 2.98923611111141  20.8654265873018 3.26001984127014  21.3026785714288 3.69732142857173  C 21.7399801587304 4.13457341269871  22.0107638888891 4.55084325396855  22.2374503968256 5.13412698412728  C 22.4085813492066 5.57445436507965  22.612152777778 6.2361111111114  22.6677083333335 7.45446428571457  C 22.7278273809526 8.77212301587329  22.7405753968256 9.16736111111139  22.7405753968256 12.5039682539685  C 22.7405753968256 15.840525793651  22.7278273809526 16.2357638888891  22.6677083333335 17.5534226190479  C 22.612152777778 18.771775793651  22.4085813492066 19.4334325396828  22.2374503968256 19.8737599206351  C 22.0107638888891 20.4570436507939  21.7399801587304 20.8733134920637  21.3026785714288 21.3105654761907  C 20.8654265873018 21.7478670634923  20.449156746032 22.018650793651  19.8658730158732 22.2453373015875  C 19.4255456349208 22.4164682539685  18.7638888888891 22.6200396825399  17.5455357142859 22.6755952380955  C 16.2280753968256 22.7357142857145  15.8328869047621 22.7484623015875  12.4960813492066 22.7484623015875  C 9.1592261904764 22.7484623015875  8.76408730158751 22.7357142857145  7.44657738095258 22.6755952380955  C 6.22822420634941 22.6200396825399  5.56656746031767 22.4164682539685  5.12624007936529 22.2453373015875  C 4.54295634920655 22.018650793651  4.12668650793671 21.7478670634923  3.68943452380973 21.3105654761907  C 3.25218253968275 20.8733134920637  2.98134920634941 20.4570436507939  2.7546626984129 19.8737599206351  C 2.58353174603195 19.4334325396828  2.37996031746052 18.771775793651  2.32440476190497 17.5534226190479  C 2.26428571428592 16.2357638888891  2.2515376984129 15.840525793651  2.2515376984129 12.5039682539685  C 2.2515376984129 9.16736111111139  2.26428571428592 8.77212301587329  2.32440476190497 7.45446428571457  C 2.37996031746052 6.2361111111114  2.58353174603195 5.57445436507965  2.7546626984129 5.13412698412728  C 2.98134920634941 4.55084325396855  3.25213293650814 4.13457341269871  3.68943452380973 3.69732142857173  C 4.12668650793671 3.26001984127014  4.54295634920655 2.98923611111141  5.12624007936529 2.76254960317491  C 5.56656746031767 2.59141865079396  6.22822420634941 2.38784722222253  7.44657738095258 2.33229166666697  Z " fill-rule="nonzero" fill="#ffffff" stroke="none" transform="matrix(1 0 0 1 1416 85 )" />
  </g>
</svg>