<?xml version="1.0" encoding="utf-8"?>
<svg version="1.1" xmlns:xlink="http://www.w3.org/1999/xlink" width="12px" height="12px" viewBox="228 249.5  12 12" xmlns="http://www.w3.org/2000/svg">
  <path d="M 234 249.5  C 237.36 249.5  240 252.14  240 255.5  C 240 258.86  237.36 261.5  234 261.5  C 230.64 261.5  228 258.86  228 255.5  C 228 252.14  230.64 249.5  234 249.5  Z " fill-rule="nonzero" fill="#ffffff" stroke="none" />
  <path d="M 234 250  C 237.08 250  239.5 252.42  239.5 255.5  C 239.5 258.58  237.08 261  234 261  C 230.92 261  228.5 258.58  228.5 255.5  C 228.5 252.42  230.92 250  234 250  Z " stroke-width="1" stroke="#797979" fill="none" />
  <path d="M 234 258.5  C 232.32 258.5  231 257.18  231 255.5  C 231 253.82  232.32 252.5  234 252.5  C 235.68 252.5  237 253.82  237 255.5  C 237 257.18  235.68 258.5  234 258.5  " fill-rule="nonzero" fill="#797979" stroke="none" />
</svg>