<?xml version="1.0" encoding="utf-8"?>
<svg version="1.1" xmlns:xlink="http://www.w3.org/1999/xlink" width="12px" height="12px" viewBox="119 323.5  12 12" xmlns="http://www.w3.org/2000/svg">
  <path d="M 125 323.5  C 128.36 323.5  131 326.14  131 329.5  C 131 332.86  128.36 335.5  125 335.5  C 121.64 335.5  119 332.86  119 329.5  C 119 326.14  121.64 323.5  125 323.5  Z " fill-rule="nonzero" fill="#ffffff" stroke="none" />
  <path d="M 125 324  C 128.08 324  130.5 326.42  130.5 329.5  C 130.5 332.58  128.08 335  125 335  C 121.92 335  119.5 332.58  119.5 329.5  C 119.5 326.42  121.92 324  125 324  Z " stroke-width="1" stroke="#797979" fill="none" />
  <path d="M 125 332.5  C 123.32 332.5  122 331.18  122 329.5  C 122 327.82  123.32 326.5  125 326.5  C 126.68 326.5  128 327.82  128 329.5  C 128 331.18  126.68 332.5  125 332.5  " fill-rule="nonzero" fill="#797979" stroke="none" />
</svg>