<?xml version="1.0" encoding="utf-8"?>
<svg version="1.1" xmlns:xlink="http://www.w3.org/1999/xlink" width="12px" height="12px" viewBox="228 323.5  12 12" xmlns="http://www.w3.org/2000/svg">
  <path d="M 234 323.5  C 237.36 323.5  240 326.14  240 329.5  C 240 332.86  237.36 335.5  234 335.5  C 230.64 335.5  228 332.86  228 329.5  C 228 326.14  230.64 323.5  234 323.5  Z " fill-rule="nonzero" fill="#ffffff" stroke="none" />
  <path d="M 234 324  C 237.08 324  239.5 326.42  239.5 329.5  C 239.5 332.58  237.08 335  234 335  C 230.92 335  228.5 332.58  228.5 329.5  C 228.5 326.42  230.92 324  234 324  Z " stroke-width="1" stroke="#797979" fill="none" />
  <path d="M 234 332.5  C 232.32 332.5  231 331.18  231 329.5  C 231 327.82  232.32 326.5  234 326.5  C 235.68 326.5  237 327.82  237 329.5  C 237 331.18  235.68 332.5  234 332.5  " fill-rule="nonzero" fill="#797979" stroke="none" />
</svg>