<?xml version="1.0" encoding="utf-8"?>
<svg version="1.1" xmlns:xlink="http://www.w3.org/1999/xlink" width="12px" height="12px" viewBox="10 394.5  12 12" xmlns="http://www.w3.org/2000/svg">
  <path d="M 16 394.5  C 19.36 394.5  22 397.14  22 400.5  C 22 403.86  19.36 406.5  16 406.5  C 12.64 406.5  10 403.86  10 400.5  C 10 397.14  12.64 394.5  16 394.5  Z " fill-rule="nonzero" fill="#ffffff" stroke="none" />
  <path d="M 16 395  C 19.08 395  21.5 397.42  21.5 400.5  C 21.5 403.58  19.08 406  16 406  C 12.92 406  10.5 403.58  10.5 400.5  C 10.5 397.42  12.92 395  16 395  Z " stroke-width="1" stroke="#797979" fill="none" />
  <path d="M 16 403.5  C 14.32 403.5  13 402.18  13 400.5  C 13 398.82  14.32 397.5  16 397.5  C 17.68 397.5  19 398.82  19 400.5  C 19 402.18  17.68 403.5  16 403.5  " fill-rule="nonzero" fill="#797979" stroke="none" />
</svg>