<?xml version="1.0" encoding="utf-8"?>
<svg version="1.1" xmlns:xlink="http://www.w3.org/1999/xlink" width="12px" height="12px" viewBox="119 394.5  12 12" xmlns="http://www.w3.org/2000/svg">
  <path d="M 125 394.5  C 128.36 394.5  131 397.14  131 400.5  C 131 403.86  128.36 406.5  125 406.5  C 121.64 406.5  119 403.86  119 400.5  C 119 397.14  121.64 394.5  125 394.5  Z " fill-rule="nonzero" fill="#ffffff" stroke="none" />
  <path d="M 125 395  C 128.08 395  130.5 397.42  130.5 400.5  C 130.5 403.58  128.08 406  125 406  C 121.92 406  119.5 403.58  119.5 400.5  C 119.5 397.42  121.92 395  125 395  Z " stroke-width="1" stroke="#797979" fill="none" />
  <path d="M 125 403.5  C 123.32 403.5  122 402.18  122 400.5  C 122 398.82  123.32 397.5  125 397.5  C 126.68 397.5  128 398.82  128 400.5  C 128 402.18  126.68 403.5  125 403.5  " fill-rule="nonzero" fill="#797979" stroke="none" />
</svg>