<?xml version="1.0" encoding="utf-8"?>
<svg version="1.1" xmlns:xlink="http://www.w3.org/1999/xlink" width="12px" height="12px" viewBox="228 394.5  12 12" xmlns="http://www.w3.org/2000/svg">
  <path d="M 234 394.5  C 237.36 394.5  240 397.14  240 400.5  C 240 403.86  237.36 406.5  234 406.5  C 230.64 406.5  228 403.86  228 400.5  C 228 397.14  230.64 394.5  234 394.5  Z " fill-rule="nonzero" fill="#ffffff" stroke="none" />
  <path d="M 234 395  C 237.08 395  239.5 397.42  239.5 400.5  C 239.5 403.58  237.08 406  234 406  C 230.92 406  228.5 403.58  228.5 400.5  C 228.5 397.42  230.92 395  234 395  Z " stroke-width="1" stroke="#797979" fill="none" />
  <path d="M 234 403.5  C 232.32 403.5  231 402.18  231 400.5  C 231 398.82  232.32 397.5  234 397.5  C 235.68 397.5  237 398.82  237 400.5  C 237 402.18  235.68 403.5  234 403.5  " fill-rule="nonzero" fill="#797979" stroke="none" />
</svg>