<?xml version="1.0" encoding="utf-8"?>
<svg version="1.1" xmlns:xlink="http://www.w3.org/1999/xlink" width="12px" height="12px" viewBox="119 249.5  12 12" xmlns="http://www.w3.org/2000/svg">
  <path d="M 125 249.5  C 128.36 249.5  131 252.14  131 255.5  C 131 258.86  128.36 261.5  125 261.5  C 121.64 261.5  119 258.86  119 255.5  C 119 252.14  121.64 249.5  125 249.5  Z " fill-rule="nonzero" fill="#ffffff" stroke="none" />
  <path d="M 125 250  C 128.08 250  130.5 252.42  130.5 255.5  C 130.5 258.58  128.08 261  125 261  C 121.92 261  119.5 258.58  119.5 255.5  C 119.5 252.42  121.92 250  125 250  Z " stroke-width="1" stroke="#797979" fill="none" />
  <path d="M 125 258.5  C 123.32 258.5  122 257.18  122 255.5  C 122 253.82  123.32 252.5  125 252.5  C 126.68 252.5  128 253.82  128 255.5  C 128 257.18  126.68 258.5  125 258.5  " fill-rule="nonzero" fill="#797979" stroke="none" />
</svg>