<?xml version="1.0" encoding="utf-8"?>
<svg version="1.1" xmlns:xlink="http://www.w3.org/1999/xlink" width="12px" height="12px" viewBox="10 323.5  12 12" xmlns="http://www.w3.org/2000/svg">
  <path d="M 16 323.5  C 19.36 323.5  22 326.14  22 329.5  C 22 332.86  19.36 335.5  16 335.5  C 12.64 335.5  10 332.86  10 329.5  C 10 326.14  12.64 323.5  16 323.5  Z " fill-rule="nonzero" fill="#ffffff" stroke="none" />
  <path d="M 16 324  C 19.08 324  21.5 326.42  21.5 329.5  C 21.5 332.58  19.08 335  16 335  C 12.92 335  10.5 332.58  10.5 329.5  C 10.5 326.42  12.92 324  16 324  Z " stroke-width="1" stroke="#797979" fill="none" />
  <path d="M 16 332.5  C 14.32 332.5  13 331.18  13 329.5  C 13 327.82  14.32 326.5  16 326.5  C 17.68 326.5  19 327.82  19 329.5  C 19 331.18  17.68 332.5  16 332.5  " fill-rule="nonzero" fill="#797979" stroke="none" />
</svg>