<?xml version="1.0" encoding="utf-8"?>
<svg version="1.1" xmlns:xlink="http://www.w3.org/1999/xlink" width="20px" height="20px" xmlns="http://www.w3.org/2000/svg">
  <g transform="matrix(1 0 0 1 -696 -1089 )">
    <path d="M 706 1090.5  C 710.76 1090.5  714.5 1094.24  714.5 1099  C 714.5 1103.76  710.76 1107.5  706 1107.5  C 701.24 1107.5  697.5 1103.76  697.5 1099  C 697.5 1094.24  701.24 1090.5  706 1090.5  Z " fill-rule="nonzero" fill="#ffffff" stroke="none" fill-opacity="0" />
    <path d="M 706 1090  C 711.04 1090  715 1093.96  715 1099  C 715 1104.04  711.04 1108  706 1108  C 700.96 1108  697 1104.04  697 1099  C 697 1093.96  700.96 1090  706 1090  Z " stroke-width="2" stroke="#000000" fill="none" stroke-opacity="0.250980392156863" />
  </g>
</svg>