<?xml version="1.0" encoding="utf-8"?>
<svg version="1.1" xmlns:xlink="http://www.w3.org/1999/xlink" width="20px" height="20px" xmlns="http://www.w3.org/2000/svg">
  <g transform="matrix(1 0 0 1 -1226 -725 )">
    <path d="M 1236 726  C 1241.04 726  1245 729.96  1245 735  C 1245 740.04  1241.04 744  1236 744  C 1230.96 744  1227 740.04  1227 735  C 1227 729.96  1230.96 726  1236 726  Z " fill-rule="nonzero" fill="#ffffff" stroke="none" fill-opacity="0" />
    <path d="M 1236 726  C 1241.04 726  1245 729.96  1245 735  C 1245 740.04  1241.04 744  1236 744  C 1230.96 744  1227 740.04  1227 735  C 1227 729.96  1230.96 726  1236 726  Z " stroke-width="2" stroke="#8c8c8c" fill="none" />
  </g>
</svg>