<?xml version="1.0" encoding="utf-8"?>
<svg version="1.1" xmlns:xlink="http://www.w3.org/1999/xlink" width="20px" height="20px" xmlns="http://www.w3.org/2000/svg">
  <g transform="matrix(1 0 0 1 -1346 -725 )">
    <path d="M 1356 726  C 1361.04 726  1365 729.96  1365 735  C 1365 740.04  1361.04 744  1356 744  C 1350.96 744  1347 740.04  1347 735  C 1347 729.96  1350.96 726  1356 726  Z " fill-rule="nonzero" fill="#113180" stroke="none" />
    <path d="M 1356 726  C 1361.04 726  1365 729.96  1365 735  C 1365 740.04  1361.04 744  1356 744  C 1350.96 744  1347 740.04  1347 735  C 1347 729.96  1350.96 726  1356 726  Z " stroke-width="2" stroke="#113180" fill="none" />
  </g>
</svg>