<?xml version="1.0" encoding="utf-8"?>
<svg version="1.1" xmlns:xlink="http://www.w3.org/1999/xlink" width="11px" height="20px" xmlns="http://www.w3.org/2000/svg">
  <g transform="matrix(1 0 0 1 -966 -1274 )">
    <path d="M 1.700405377703 19.7931034482758  C 1.56832409691492 19.9310344827586  1.40322249592972 20  1.22161073484616 20  C 1.03999897376218 20  0.874897372776976 19.9310344827586  0.742816091988895 19.7931034482758  C 0.478653530412316 19.5172413793102  0.478653530412316 19.0689655172414  0.742816091988895 18.7931034482758  C 0.742816091988895 18.7931034482758  9.16299774223519 10  9.16299774223519 10  C 9.16299774223519 10  0.742816091988895 1.20689655172418  0.742816091988895 1.20689655172418  C 0.478653530412316 0.931034482758605  0.478653530412316 0.482758620689765  0.742816091988895 0.206896551724185  C 1.00697865356506 -0.068965517241395  1.43624281612642 -0.068965517241395  1.700405377703 0.206896551724185  C 1.700405377703 0.206896551724185  10.6158918309049 9.5  10.6158918309049 9.5  C 10.8800543924815 9.77586206896558  10.8800543924815 10.2241379310344  10.6158918309049 10.5  C 10.6158918309049 10.5  1.700405377703 19.7931034482758  1.700405377703 19.7931034482758  Z " fill-rule="nonzero" fill="#ffffff" stroke="none" transform="matrix(1 0 0 1 966 1274 )" />
  </g>
</svg>