<?xml version="1.0" encoding="utf-8"?>
<svg version="1.1" xmlns:xlink="http://www.w3.org/1999/xlink" width="13px" height="13px" xmlns="http://www.w3.org/2000/svg">
  <g transform="matrix(1 0 0 1 -1299 -91 )">
    <path d="M 12.9129464285718 6.50396825396774  C 12.9129464285718 2.95997023809468  10.0400297619051 0.0870535714279868  6.49608134920663 0.0870535714279868  C 2.9520833333338 0.0870535714279868  0.0791666666671063 2.95997023809468  0.0791666666671063 6.50396825396774  C 0.0791666666671063 10.047916666666  2.9520833333338 12.9208333333327  6.49608134920663 12.9208333333327  C 10.0400297619051 12.9208333333327  12.9129464285718 10.047916666666  12.9129464285718 6.50396825396774  Z M 6.49608134920618 2.33859126984089  C 8.79652777777756 2.33859126984089  10.6614087301584 4.20347222222199  10.6614087301584 6.50396825396774  C 10.6614087301584 8.80441468253912  8.79652777777756 10.6692956349202  6.49608134920618 10.6692956349202  C 4.19558531745997 10.6692956349202  2.3307043650791 8.80441468253912  2.3307043650791 6.50396825396774  C 2.3307043650791 4.20347222222199  4.19558531745997 2.33859126984089  6.49608134920618 2.33859126984089  Z " fill-rule="nonzero" fill="#ffffff" stroke="none" transform="matrix(1 0 0 1 1299 91 )" />
  </g>
</svg>