<?xml version="1.0" encoding="utf-8"?>
<svg version="1.1" xmlns:xlink="http://www.w3.org/1999/xlink" width="1px" height="2px" xmlns="http://www.w3.org/2000/svg">
  <g transform="matrix(1 0 0 1 -1187 -81 )">
    <path d="M 0.496590086012382 0  C 0.360664980503442 0.00799447920950334  0.233840861946008 0.113749334367127  0.150071124482134 0.288951841359778  C 0.0484638174477195 0.486695472978157  -0.00463332932929087 0.739067390791594  0.00106797102412773 0.997167138810201  C -0.00847281653101779 1.26572521701673  0.0461988720850394 1.52983315216094  0.153536314097436 1.73371104815864  C 0.242317951104539 1.89532491045316  0.367298181856652 1.99136829723033  0.500055275627684 2  C 0.634164194243512 1.99543993441489  0.760514721101297 1.89627763686697  0.846574237157929 1.72804532577904  C 0.953377922233749 1.52590550462298  1.00803764552867 1.26388652640925  0.999042580231235 0.997167138810199  C 1.00410545248845 0.740182636306828  0.952446226129409 0.48879905640828  0.853504616388531 0.288951841359778  C 0.768448553042106 0.107205081373521  0.636555917218931 0.000427080649543585  0.496590086012382 0  Z " fill-rule="nonzero" fill="#113180" stroke="none" transform="matrix(1 0 0 1 1187 81 )" />
  </g>
</svg>