<?xml version="1.0" encoding="utf-8"?>
<svg version="1.1" xmlns:xlink="http://www.w3.org/1999/xlink" width="16px" height="14px" xmlns="http://www.w3.org/2000/svg">
  <defs>
    <mask fill="white" id="clip3">
      <path d="M 16 10  C 15.9999999999999 12.2  14.2999999999998 14  12.1999999999999 14  C 12.1999999999999 14  3.79999999999996 14  3.79999999999996 14  C 1.69999999999993 14  0 12.2  0 10  C 0 10  0 0  0 0  L 16 0  C 16 0  16 10  16 10  Z " fill-rule="evenodd" />
    </mask>
  </defs>
  <g transform="matrix(1 0 0 1 -1430 -77 )">
    <path d="M 16 10  C 15.9999999999999 12.2  14.2999999999998 14  12.1999999999999 14  C 12.1999999999999 14  3.79999999999996 14  3.79999999999996 14  C 1.69999999999993 14  0 12.2  0 10  C 0 10  0 0  0 0  L 16 0  C 16 0  16 10  16 10  Z " fill-rule="nonzero" fill="#ffffff" stroke="none" fill-opacity="0" transform="matrix(1 0 0 1 1430 77 )" />
    <path d="M 16 10  C 15.9999999999999 12.2  14.2999999999998 14  12.1999999999999 14  C 12.1999999999999 14  3.79999999999996 14  3.79999999999996 14  C 1.69999999999993 14  0 12.2  0 10  C 0 10  0 0  0 0  L 16 0  C 16 0  16 10  16 10  Z " stroke-width="4" stroke="#113180" fill="none" transform="matrix(1 0 0 1 1430 77 )" mask="url(#clip3)" />
  </g>
</svg>