<?xml version="1.0" encoding="utf-8"?>
<svg version="1.1" xmlns:xlink="http://www.w3.org/1999/xlink" width="29px" height="29px" xmlns="http://www.w3.org/2000/svg">
  <g transform="matrix(1 0 0 1 -72 -71 )">
    <path d="M 27.6658937198067 16.4459903381685  C 30.4819323671497 3.99613526570101  23.4421256038647 0.735265700484888  16.8459903381643 0.735265700484888  C 6.84115942028984 0.735265700484888  0.394396135265652 7.62705314009872  0.394396135265652 16.5936231884079  C 0.394396135265652 23.3377777777823  4.83999999999992 28.8216425120809  14.104347826087 28.8216425120809  C 19.8096618357488 28.8216425120809  23.8856038647343 26.9700483091838  26.7033816425121 24.8212560386492  C 26.7033816425121 24.8212560386492  22.4778743961353 19.7070531401005  22.4778743961353 19.7070531401005  C 21.4411594202898 20.5957487922751  19.2923671497583 22.0774879227101  15.7337198067632 22.0774879227101  C 12.3988405797102 22.0774879227101  10.0282125603865 19.9286956521755  9.65700483091791 16.4459903381685  C 9.65700483091791 16.4459903381685  27.6658937198067 16.4459903381685  27.6658937198067 16.4459903381685  Z M 15.9572946859903 6.44077294685849  C 19.7358454106279 6.44077294685849  19.8096618357488 9.48019323671178  19.5142028985508 12.0742028985478  C 19.5142028985508 12.0742028985478  10.0282125603865 12.0742028985478  10.0282125603865 12.0742028985478  C 10.8430917874396 8.81314009661583  13.0658937198068 6.44077294685849  15.9572946859903 6.44077294685849  Z " fill-rule="nonzero" fill="#113180" stroke="none" transform="matrix(1 0 0 1 72 71 )" />
  </g>
</svg>