<?xml version="1.0" encoding="utf-8"?>
<svg version="1.1" xmlns:xlink="http://www.w3.org/1999/xlink" width="29px" height="29px" xmlns="http://www.w3.org/2000/svg">
  <g transform="matrix(1 0 0 1 -134 -71 )">
    <path d="M 27.991111111111 12.741256038651  C 29.1773913043478 4.43980676328647  25.1754589371981 0.735265700484888  16.5043478260868 0.735265700484888  C 11.168309178744 0.735265700484888  6.35149758454099 2.43884057971081  3.38763285024152 5.62589371980721  C 3.38763285024152 5.62589371980721  7.9072463768116 10.2210628019347  7.9072463768116 10.2210628019347  C 10.056038647343 7.99826086956818  12.4284057971015 6.88599033816718  15.0964251207729 6.88599033816718  C 18.4314975845409 6.88599033816718  19.3201932367149 8.81314009661946  19.1725603864734 12.0003864734317  C 19.1725603864734 12.0003864734317  15.7632850241546 12.0003864734317  15.7632850241546 12.0003864734317  C 5.53642512077295 12.0003864734317  0.200579710144893 15.2597101449319  0.200579710144893 21.5601932367172  C 0.200579710144893 25.5621256038685  3.68347826086961 28.8216425120809  8.2786473429951 28.8216425120809  C 12.9476328502415 28.8216425120809  15.6156521739131 26.8222222222248  17.1712077294685 25.1169082125634  C 17.1712077294685 25.1169082125634  17.1712077294685 28.0805797101493  17.1712077294685 28.0805797101493  L 25.7685024154589 28.0805797101493  C 25.7685024154589 28.0805797101493  27.991111111111 12.741256038651  27.991111111111 12.741256038651  Z M 18.5053140096618 16.3719806763293  C 17.6166183574878 20.0782608695663  15.7632850241546 23.0419323671522  12.5022222222221 23.0419323671522  C 10.2796135265701 23.0419323671522  9.38917874396134 21.9296618357512  9.38917874396134 20.2260869565253  C 9.38917874396134 16.7431884057987  13.6144927536232 16.3719806763293  18.5053140096618 16.3719806763293  Z " fill-rule="nonzero" fill="#d81130" stroke="none" transform="matrix(1 0 0 1 134 71 )" />
  </g>
</svg>