<?xml version="1.0" encoding="utf-8"?>
<svg version="1.1" xmlns:xlink="http://www.w3.org/1999/xlink" width="8px" height="7px" xmlns="http://www.w3.org/2000/svg">
  <g transform="matrix(1 0 0 1 -847 -886 )">
    <path d="M 0 2  C 0 0.900000000000002  0.899999999999998 0  2 0  C 2 0  6 0  6 0  C 7.1 0  8 0.899999999999999  8 2  C 8 2  8 5  8 5  C 8 6.1  7.1 7  6 7  C 6 7  2 7  2 7  C 0.899999999999998 7  0 6.1  0 5  C 0 5  0 2  0 2  Z " fill-rule="nonzero" fill="#113180" stroke="none" transform="matrix(1 0 0 1 847 886 )" />
  </g>
</svg>