<?xml version="1.0" encoding="utf-8"?>
<svg version="1.1" xmlns:xlink="http://www.w3.org/1999/xlink" width="7px" height="23px" xmlns="http://www.w3.org/2000/svg">
  <g transform="matrix(1 0 0 1 -882 -886 )">
    <path d="M 6.70000000000005 0.200000000000045  C 6.70000000000005 0.200000000000045  6.70000000000005 20.6  6.70000000000005 20.6  C 6.5 21.8000000000001  5.60000000000002 22.7  4.5 22.7  C 3.30000000000007 22.7  2.30000000000007 21.7  2.30000000000007 20.6  C 2.30000000000007 20.6  2.30000000000007 12.5  2.30000000000007 12.5  C 2.30000000000007 12.5  1.79999999999995 11.9000000000001  1.79999999999995 11.9000000000001  C 1 11  0.5 9.90000000000009  0.5 8.80000000000007  C 0.5 8.80000000000007  0.5 5.5  0.5 5.5  C 0.5 2.60000000000002  2.89999999999998 0.200000000000045  5.90000000000009 0.200000000000045  C 5.90000000000009 0.200000000000045  6.70000000000005 0.200000000000045  6.70000000000005 0.200000000000045  Z M 4.60000000000002 21.2  C 5.00000000000011 21.2  5.20000000000005 20.8000000000001  5.30000000000007 20.5  C 5.30000000000007 20.5  5.20000000000005 1.70000000000005  5.20000000000005 1.70000000000005  C 3.40000000000009 2  2.10000000000002 3.60000000000002  2.10000000000002 5.5  C 2.10000000000002 5.5  2.10000000000002 8.80000000000007  2.10000000000002 8.80000000000007  C 2.10000000000002 9.5  2.39999999999998 10.3000000000001  2.89999999999998 10.9000000000001  C 2.89999999999998 10.9000000000001  3.90000000000009 11.8000000000001  3.90000000000009 11.8000000000001  C 3.90000000000009 11.8000000000001  3.90000000000009 20.6  3.90000000000009 20.6  C 3.90000000000009 20.9000000000001  4.20000000000005 21.2  4.60000000000002 21.2  Z " fill-rule="nonzero" fill="#113180" stroke="none" transform="matrix(1 0 0 1 882 886 )" />
  </g>
</svg>