<?xml version="1.0" encoding="utf-8"?>
<svg version="1.1" xmlns:xlink="http://www.w3.org/1999/xlink" width="10px" height="22px" xmlns="http://www.w3.org/2000/svg">
  <g transform="matrix(1 0 0 1 -870 -887 )">
    <path d="M 7.17171717171717 19.689497716895  C 7.17171717171718 20.9954337899543  6.26262626262626 22  5.05050505050505 22  C 3.83838383838384 22  2.82828282828283 20.9954337899543  2.82828282828283 19.8904109589041  C 2.82828282828283 19.8904109589041  2.82828282828283 10.5479452054795  2.82828282828283 10.5479452054795  C 2.82828282828283 10.5479452054795  1.31313131313131 9.04109589041096  1.31313131313131 9.04109589041096  C 0.505050505050505 8.13698630136987  0 7.03196347031964  0 6.12785388127854  C 0 6.12785388127854  0.505050505050505 0.100456621004571  0.505050505050505 0.100456621004571  L 2.02020202020202 0.200913242009139  C 2.02020202020202 0.200913242009139  1.51515151515152 6.12785388127854  1.51515151515152 6.12785388127854  C 1.51515151515152 6.63013698630137  1.81818181818182 7.33333333333333  2.42424242424242 7.93607305936073  C 2.42424242424242 7.93607305936073  4.34343434343434 9.84474885844749  4.34343434343434 9.84474885844749  C 4.34343434343434 9.84474885844749  4.34343434343434 19.7899543378995  4.34343434343434 19.7899543378995  C 4.34343434343434 20.0913242009132  4.64646464646465 20.3926940639269  5.05050505050505 20.3926940639269  C 5.45454545454545 20.3926940639269  5.75757575757576 20.0913242009132  5.75757575757576 19.7899543378995  C 5.75757575757576 19.7899543378995  5.75757575757576 9.84474885844749  5.75757575757576 9.84474885844749  C 5.75757575757576 9.84474885844749  7.67676767676767 7.83561643835617  7.67676767676767 7.83561643835617  C 8.08080808080808 7.23287671232877  8.48484848484848 6.52968036529681  8.48484848484848 6.02739726027397  C 8.48484848484848 6.02739726027397  7.97979797979798 0.100456621004568  7.97979797979798 0.100456621004568  L 9.49494949494949 0  C 9.49494949494949 0  10 5.9269406392694  10 5.9269406392694  C 10 7.03196347031963  9.39393939393939 7.83561643835616  8.88888888888889 8.63926940639269  C 8.88888888888889 8.63926940639269  8.68686868686869 8.84018264840182  8.68686868686869 8.84018264840182  L 7.17171717171717 10.3470319634703  C 7.17171717171717 10.3470319634703  7.17171717171717 19.689497716895  7.17171717171717 19.689497716895  Z " fill-rule="nonzero" fill="#113180" stroke="none" transform="matrix(1 0 0 1 870 887 )" />
  </g>
</svg>