<?xml version="1.0" encoding="utf-8"?>
<svg version="1.1" xmlns:xlink="http://www.w3.org/1999/xlink" width="124px" height="50px" xmlns="http://www.w3.org/2000/svg">
  <g transform="matrix(1 0 0 1 -348 -605 )">
    <path d="M 349.5 630  A 23.5 23.5 0 0 1 373 606.5 L 447 606.5  A 23.5 23.5 0 0 1 470.5 630 A 23.5 23.5 0 0 1 447 653.5 L 373 653.5  A 23.5 23.5 0 0 1 349.5 630 Z " fill-rule="nonzero" fill="#000000" stroke="none" fill-opacity="0.101960784313725" />
    <path d="M 348.75 630  A 24.25 24.25 0 0 1 373 605.75 L 447 605.75  A 24.25 24.25 0 0 1 471.25 630 A 24.25 24.25 0 0 1 447 654.25 L 373 654.25  A 24.25 24.25 0 0 1 348.75 630 Z " stroke-width="1.5" stroke="#000000" fill="none" stroke-opacity="0.250980392156863" />
  </g>
</svg>