<?xml version="1.0" encoding="utf-8"?>
<svg version="1.1" xmlns:xlink="http://www.w3.org/1999/xlink" width="80px" height="80px" xmlns="http://www.w3.org/2000/svg">
  <g transform="matrix(1 0 0 1 -705 -856 )">
    <path d="M 40 0  C 62.1 0  80 17.9  80 40  C 80 62.1  62.1 80  40 80  C 17.9 80  0 62.1  0 40  C 0 17.9  17.9 0  40 0  Z M 40 78.5  C 61.2 78.5  78.5 61.2  78.5 40  C 78.5 18.8  61.2 1.5  40 1.5  C 18.8 1.5  1.5 18.8  1.5 40  C 1.5 61.2  18.8 78.5  40 78.5  Z " fill-rule="nonzero" fill="#113180" stroke="none" transform="matrix(1 0 0 1 705 856 )" />
  </g>
</svg>