<?xml version="1.0" encoding="utf-8"?>
<svg version="1.1" xmlns:xlink="http://www.w3.org/1999/xlink" width="46px" height="34px" xmlns="http://www.w3.org/2000/svg">
  <g transform="matrix(1 0 0 1 -721 -879 )">
    <path d="M 14.4741379310345 34  L 15.7629310344828 32.3049853372434  C 15.7629310344828 32.3049853372434  5.75 32.3049853372434  5.75 32.3049853372434  C 3.4698275862069 32.3049853372434  1.58620689655173 30.4105571847507  1.58620689655173 28.1173020527859  C 1.58620689655173 28.1173020527859  1.58620689655173 5.68328445747801  1.58620689655173 5.68328445747801  C 1.58620689655173 3.3900293255132  3.4698275862069 1.49560117302053  5.75 1.49560117302053  C 5.75 1.49560117302053  44.6120689655172 1.49560117302053  44.6120689655172 1.49560117302053  L 46 0  C 46 0  5.75 0  5.75 0  C 2.57758620689655 0  0 2.59237536656892  0 5.78299120234604  C 0 5.78299120234604  0 28.217008797654  0 28.217008797654  C 0 31.4076246334311  2.57758620689655 34  5.75 34  C 5.75 34  14.4741379310345 34  14.4741379310345 34  Z " fill-rule="nonzero" fill="#113180" stroke="none" transform="matrix(1 0 0 1 721 879 )" />
  </g>
</svg>