<?xml version="1.0" encoding="utf-8"?>
<svg version="1.1" xmlns:xlink="http://www.w3.org/1999/xlink" width="4px" height="6px" xmlns="http://www.w3.org/2000/svg">
  <g transform="matrix(1 0 0 1 -727 -896 )">
    <path d="M 3.79999999999995 5.5  L 2.79999999999995 5.5  L 2 3.70000000000005  L 1.29999999999995 3.70000000000005  L 1.29999999999995 5.39999999999998  L 0.399999999999977 5.39999999999998  L 0.399999999999977 0.899999999999977  C 0.399999999999977 0.899999999999977  2 0.899999999999977  2 0.899999999999977  C 2.5 0.899999999999977  2.89999999999998 1  3.19999999999993 1.29999999999995  C 3.5 1.5  3.59999999999991 1.89999999999998  3.59999999999991 2.29999999999995  C 3.59999999999991 2.60000000000002  3.5 2.89999999999998  3.39999999999998 3.10000000000002  C 3.29999999999995 3.29999999999995  3.09999999999991 3.5  2.79999999999995 3.60000000000002  C 2.79999999999995 3.60000000000002  3.79999999999995 5.5  3.79999999999995 5.5  Z M 1.10000000000002 1.59999999999991  L 1.10000000000002 2.99999999999989  L 1.20000000000005 2.99999999999989  C 1.20000000000005 2.99999999999989  2 2.99999999999989  2 2.99999999999989  C 2.20000000000005 2.99999999999989  2.40000000000009 2.89999999999986  2.5 2.79999999999984  C 2.60000000000002 2.69999999999993  2.70000000000005 2.49999999999989  2.70000000000005 2.29999999999995  C 2.70000000000005 2.09999999999991  2.60000000000002 1.89999999999986  2.5 1.79999999999995  C 2.40000000000009 1.69999999999993  2.20000000000005 1.59999999999991  1.90000000000009 1.59999999999991  C 1.90000000000009 1.59999999999991  1.10000000000002 1.59999999999991  1.10000000000002 1.59999999999991  Z " fill-rule="nonzero" fill="#113180" stroke="none" transform="matrix(1 0 0 1 727 896 )" />
  </g>
</svg>