<?xml version="1.0" encoding="utf-8"?>
<svg version="1.1" xmlns:xlink="http://www.w3.org/1999/xlink" width="132px" height="49px" xmlns="http://www.w3.org/2000/svg">
  <g transform="matrix(1 0 0 1 -228 -1120 )">
    <path d="M 230 1125  A 3 3 0 0 1 233 1122 L 355 1122  A 3 3 0 0 1 358 1125 L 358 1164  A 3 3 0 0 1 355 1167 L 233 1167  A 3 3 0 0 1 230 1164 L 230 1125  Z " fill-rule="nonzero" fill="#ffffff" stroke="none" fill-opacity="0" />
    <path d="M 229 1125  A 4 4 0 0 1 233 1121 L 355 1121  A 4 4 0 0 1 359 1125 L 359 1164  A 4 4 0 0 1 355 1168 L 233 1168  A 4 4 0 0 1 229 1164 L 229 1125  Z " stroke-width="2" stroke="#000000" fill="none" stroke-opacity="0.250980392156863" />
  </g>
</svg>