<?xml version="1.0" encoding="utf-8"?>
<svg version="1.1" xmlns:xlink="http://www.w3.org/1999/xlink" width="19px" height="19px" xmlns="http://www.w3.org/2000/svg">
  <defs>
    <mask fill="white" id="clip6">
      <path d="M 4.23535156249999 15.3341740226986  L 0 15.3341740226987  L 0 0  L 19.0000000000003 0  L 19.0000000000003 15  L 8.95410156249999 15  L 3.67428625339926 19  L 4.23535156249999 15.3341740226986  Z " fill-rule="evenodd" />
    </mask>
  </defs>
  <g transform="matrix(1 0 0 1 -1424 -71 )">
    <path d="M 4.23535156249999 15.3341740226986  L 0 15.3341740226987  L 0 0  L 19.0000000000003 0  L 19.0000000000003 15  L 8.95410156249999 15  L 3.67428625339926 19  L 4.23535156249999 15.3341740226986  Z " fill-rule="nonzero" fill="#ffffff" stroke="none" fill-opacity="0" transform="matrix(1 0 0 1 1424 71 )" />
    <path d="M 4.23535156249999 15.3341740226986  L 0 15.3341740226987  L 0 0  L 19.0000000000003 0  L 19.0000000000003 15  L 8.95410156249999 15  L 3.67428625339926 19  L 4.23535156249999 15.3341740226986  Z " stroke-width="4" stroke="#113180" fill="none" transform="matrix(1 0 0 1 1424 71 )" mask="url(#clip6)" />
  </g>
</svg>