<?xml version="1.0" encoding="utf-8"?>
<svg version="1.1" xmlns:xlink="http://www.w3.org/1999/xlink" width="5px" height="7px" xmlns="http://www.w3.org/2000/svg">
  <g transform="matrix(1 0 0 1 -1431 -74 )">
    <path d="M 0.652602394256687 3.3765695591592  C 0.971195689090661 3.3765695591592  1.16646254721471 3.13854095311348  1.3000661869838 2.67306279017963  C 1.38238314817844 2.30673743063431  1.53241802523692 1.9601420404462  1.7419859185277 1.65218454647243  C 1.94245151399424 1.40884543561813  2.24510319680036 1.2806799579726  2.55388496020138 1.30836544885084  C 2.84678563425675 1.29843816527327  3.12895483493758 1.42236633066021  3.32467518963842 1.64689502189364  C 3.52380752373658 1.87833200040824  3.63030891122679 2.17886771830736  3.62271407835407 2.48792942992185  C 3.62509117010458 2.65212688390397  3.59173105258815 2.81478965927187  3.52508064929205 2.96398664201329  C 3.46055247294285 3.10584514799155  3.37944828343491 3.23906789725841  3.28356637740178 3.36070098542281  C 3.18764581551628 3.47707052615628  3.03348776962887 3.65338801211607  2.82109223973955 3.88965344330219  C 2.5744393663197 4.15941919682067  2.37917250819565 4.3868687537088  2.2352916653674 4.57729163854538  C 2.0863801754612 4.78275917186659  1.97016616991441 5.01130080942662  1.89100536288553 5.25435078463098  C 1.79889800703442 5.54622950887429  1.75546252681446 5.8520541162165  1.76254032464602 6.15885948760471  C 1.74576096683426 6.38343458630726  1.80774789094219 6.60676086459684  1.93725277665175 6.78831291248117  C 2.04498363306769 6.92521213871858  2.20805190295998 7.00328546833464  2.37917250819564 6.99989389563291  C 2.71318160761836 6.99989389563291  2.89303266115367 6.78302338790237  2.97525028562695 6.35457189702008  C 3.01122049633401 6.14828043844712  3.03691350398191 6.00546327481969  3.05746791010024 5.92612040613778  C 3.07849681801509 5.84352664656613  3.10423441140975 5.76227985759042  3.13454693304393 5.68280227551327  C 3.17883501524041 5.58877760912846  3.23038671948547 5.49856574726438  3.28870497893134 5.41303652199479  C 3.37321253327668 5.29499693972994  3.46413976943596 5.18197316894889  3.5610508599991 5.07450694895199  C 3.97213898236553 4.60373926143935  4.25990066802203 4.28636778671172  4.41405871390943 4.07478680355997  C 4.58031724637941 3.86550873849548  4.71857739811015 3.63423725183007  4.82514683627586 3.38714860831679  C 4.94087375758239 3.10234368987081  5.00026923916202 2.7966439212896  4.99985928828159 2.48792942992185  C 5.00437830430895 2.05195354145751  4.8999804272587 1.62209718193841  4.69668179803635 1.23960162932652  C 4.49807042691521 0.86169943608762  4.20085204447165 0.548423523916928  3.83853534259645 0.335092926352791  C 3.44698744606777 0.107720732093041  3.0033510016959 -0.00735916221038641  2.55388496020138 0.00185287788878498  C 2.07102645283114 -0.017243364901967  1.59352626485836 0.111620758320221  1.18187835180345 0.372119598404347  C 0.808653623236491 0.631321543108588  0.50614146139948 0.984602441731091  0.303177490245233 1.39828736669034  C 0.111849042284617 1.7665375500458  0.00795527039886563 2.17619196420926  0 2.59371992149772  C 0.00105509914695455 2.78755155296356  0.0683654024459928 2.9748143565487  0.190128256594468 3.1226723793771  C 0.298447650650992 3.27566167436792  0.468833483169128 3.36920308312617  0.652602394256687 3.3765695591592  Z " fill-rule="nonzero" fill="#113180" stroke="none" transform="matrix(1 0 0 1 1431 74 )" />
  </g>
</svg>