<?xml version="1.0" encoding="utf-8"?>
<svg version="1.1" xmlns:xlink="http://www.w3.org/1999/xlink" width="3px" height="5px" xmlns="http://www.w3.org/2000/svg">
  <defs>
    <mask fill="white" id="clip8">
      <path d="M 2.12745676407026 4.5  C 2.12745676407026 4.80000000000001  1.81372838203507 5  1.5 5  C 1.18627161796493 5  0.977119363274806 4.80000000000001  0.872543235929743 4.5  C 0.872543235929743 4.5  0.0359342171694791 1.80000000000001  0.0359342171694791 1.80000000000001  C -0.173218037520646 0.900000000000034  0.558814853894674 0  1.5 0  C 2.44118514610533 0  3.17321803752065 0.899999999999977  2.96406578283052 1.80000000000001  C 2.96406578283052 1.80000000000001  2.12745676407026 4.5  2.12745676407026 4.5  Z " fill-rule="evenodd" />
    </mask>
  </defs>
  <g transform="matrix(1 0 0 1 -1683 -82 )">
    <path d="M 2.12745676407026 4.5  C 2.12745676407026 4.80000000000001  1.81372838203507 5  1.5 5  C 1.18627161796493 5  0.977119363274806 4.80000000000001  0.872543235929743 4.5  C 0.872543235929743 4.5  0.0359342171694791 1.80000000000001  0.0359342171694791 1.80000000000001  C -0.173218037520646 0.900000000000034  0.558814853894674 0  1.5 0  C 2.44118514610533 0  3.17321803752065 0.899999999999977  2.96406578283052 1.80000000000001  C 2.96406578283052 1.80000000000001  2.12745676407026 4.5  2.12745676407026 4.5  Z " fill-rule="nonzero" fill="#ffffff" stroke="none" fill-opacity="0" transform="matrix(1 0 0 1 1683 82 )" />
    <path d="M 2.12745676407026 4.5  C 2.12745676407026 4.80000000000001  1.81372838203507 5  1.5 5  C 1.18627161796493 5  0.977119363274806 4.80000000000001  0.872543235929743 4.5  C 0.872543235929743 4.5  0.0359342171694791 1.80000000000001  0.0359342171694791 1.80000000000001  C -0.173218037520646 0.900000000000034  0.558814853894674 0  1.5 0  C 2.44118514610533 0  3.17321803752065 0.899999999999977  2.96406578283052 1.80000000000001  C 2.96406578283052 1.80000000000001  2.12745676407026 4.5  2.12745676407026 4.5  Z " stroke-width="4" stroke="#113180" fill="none" transform="matrix(1 0 0 1 1683 82 )" mask="url(#clip8)" />
  </g>
</svg>