<?xml version="1.0" encoding="utf-8"?>
<svg version="1.1" xmlns:xlink="http://www.w3.org/1999/xlink" width="25px" height="18px" xmlns="http://www.w3.org/2000/svg">
  <g>
    <path d="M 25 8.52272727272728  C 25 8.52272727272728  25 4.56062133431085  24.4775568181818 2.66170271260997  C 24.1900568181818 1.61395711143695  23.3428977272727 0.788902126099708  22.2673295454545 0.508889296187683  C 20.3177556818182 0  12.5 0  12.5 0  C 12.5 0  4.68224431818182 0  2.73267045454545 0.508889296187683  C 1.65710227272727 0.788902126099708  0.809943181818181 1.61395711143695  0.522443181818182 2.66170271260997  C 0 4.56062133431085  0 8.52272727272728  0 8.52272727272728  C 0 8.52272727272728  0 12.4846957478006  0.522443181818182 14.3837518328446  C 0.809943181818181 15.4314974340176  1.65710227272727 16.2565524193548  2.73267045454545 16.53670271261  C 4.68224431818182 17.0454545454546  12.5 17.0454545454546  12.5 17.0454545454546  C 12.5 17.0454545454546  20.3177556818182 17.0454545454546  22.2673295454545 16.53670271261  C 23.3428977272727 16.2565524193548  24.1900568181818 15.4314974340176  24.4775568181818 14.3837518328446  C 25 12.4846957478006  25 8.52272727272728  25 8.52272727272728  Z M 9.94318181818198 4.92544904692113  L 16.4772727272729 8.5228647360707  L 9.94318181818198 12.120005498534  L 9.94318181818198 4.92544904692113  Z " fill-rule="nonzero" fill="#fffffe" stroke="none" />
  </g>
</svg>