<?xml version="1.0" encoding="utf-8"?>
<svg version="1.1" xmlns:xlink="http://www.w3.org/1999/xlink" width="25px" height="25px" xmlns="http://www.w3.org/2000/svg">
  <g transform="matrix(1 0 0 1 -1251 -85 )">
    <path d="M 24.9999999783633 1.37890626969656  C 24.9995955860609 0.617143573967209  24.3818799593997 -0.00013488664541155  23.6201171682779 0  C 23.6201171682779 0  1.37890626969656 0  1.37890626969656 0  C 0.617143573967205 0.000404414411878012  -0.000134886645414548 0.61812004107309  0 1.37988283219485  C 0 1.37988283219485  0 23.6210937307762  0 23.6210937307762  C 0.000539092897823674 24.3828005640506  0.618175808166425 25.0000001691173  1.37988283219485 24.9999999783633  C 1.37988283219485 24.9999999783633  13.3544921862411 24.9999999783633  13.3544921862411 24.9999999783633  L 13.3544921862411 15.3320312452808  L 10.107421879423 15.3320312452808  L 10.107421879423 11.5478515644025  L 13.3544921862411 11.5478515644025  C 13.3544921862411 11.5478515644025  13.3544921862411 8.76464844427266  13.3544921862411 8.76464844427266  C 13.3544921862411 5.53564454367291  15.3264160109156 3.77734376549967  18.20703124025 3.77734376549967  C 19.5866699097108 3.77734376549967  20.7724609232609 3.88012696844481  21.1181640476559 3.9260254058645  C 21.1181640476559 3.9260254058645  21.1181640476559 7.29980469683591  21.1181640476559 7.29980469683591  C 21.1181640476559 7.29980469683591  19.1254882698928 7.29980469683591  19.1254882698928 7.29980469683591  C 17.5629882726269 7.29980469683591  17.2607421794058 8.04418946115835  17.2607421794058 9.13647461549702  C 17.2607421794058 9.13647461549702  17.2607421794058 11.5478515644025  17.2607421794058 11.5478515644025  L 21.0080566259736 11.5478515644025  L 20.519775376828 15.3320312452808  L 17.2607421794058 15.3320312452808  L 17.2607421794058 24.9999999783633  C 17.2607421794058 24.9999999783633  23.6201171682779 24.9999999783633  23.6201171682779 24.9999999783633  C 23.9861046960477 25.0000647491865  24.3371209225023 24.8547054560392  24.5959131892708 24.5959131892708  C 24.8547054560392 24.3371209225023  25.0000647491865 23.9861046960477  24.9999999783633 23.6201171682779  C 24.9999999783633 23.6201171682779  24.9999999783633 1.37890626969656  24.9999999783633 1.37890626969656  Z " fill-rule="nonzero" fill="#ffffff" stroke="none" transform="matrix(1 0 0 1 1251 85 )" />
  </g>
</svg>