<?xml version="1.0" encoding="utf-8"?>
<svg version="1.1" xmlns:xlink="http://www.w3.org/1999/xlink" width="25px" height="28px" xmlns="http://www.w3.org/2000/svg">
  <g transform="matrix(1 0 0 1 -49 -72 )">
    <path d="M 19.8649175592731 0  C 16.9851486340113 0  14.1789385004212 1.02343264175476  12.4060175713082 4.75598535813217  C 12.4060175713082 4.75598535813217  12.5533277169334 1.02343264175476  12.5533277169334 1.02343264175476  L 3.76517029726802 1.02343264175476  L 0 27  L 9.08277771091588 27  C 9.08277771091588 27  10.6329040799133 16.4644058454407  10.6329040799133 16.4644058454407  C 11.5202310747382 10.3913519701509  14.6208689372969 8.34086155237718  17.2795763629799 8.34086155237718  C 18.7565290648694 8.34086155237718  19.8649175592731 8.92641613432076  20.3819472860753 9.22005200972355  C 20.3819472860753 9.22005200972355  24 1.39014359206286  24 1.39014359206286  C 23.4090263569623 0.877473288484367  21.7113972800578 0  19.8649175592731 0  Z " fill-rule="nonzero" fill="#113180" stroke="none" transform="matrix(1 0 0 1 49 72 )" />
  </g>
</svg>